<svg aria-hidden="true" style="position:absolute;width:0;height:0" xmlns="http://www.w3.org/2000/svg" overflow="hidden"><defs><symbol id="icon-bx-arrow-backsvg" viewBox="0 0 32 32"><path d="M25.324 16.556H4.777v-1.112h20.547L17.489 7.61l.786-.786 9.177 9.177-9.177 9.177-.786-.786 7.834-7.834z"/></symbol><symbol id="icon-bx-beersvg" viewBox="0 0 32 32"><path d="M8.777 10.111h.902V21.89h-.902V10.111zM16.966 10.111h.924V21.89h-.924V10.111z"/><path d="M23.223 5.333v3.444h3.444c1.041 0 1.89.848 1.89 1.889v10.667c0 1.041-.848 1.89-1.889 1.89h-3.444v2.111a3.228 3.228 0 01-3.223 3.223H6.668a3.228 3.228 0 01-3.223-3.223v-20c0-.307.249-.556.556-.556h18.667c.308 0 .556.249.556.556zm-1.113 20V5.889H4.556v19.444c0 1.163.945 2.11 2.11 2.11h13.333c1.166 0 2.11-.947 2.11-2.11zm1.113-3.222h4.221V9.89h-4.221v12.221z"/></symbol><symbol id="icon-bx-bussvg" viewBox="0 0 32 32"><path  d="M11.223 20.667a1.223 1.223 0 11-2.446 0 1.223 1.223 0 012.446 0zM23.223 20.667a1.223 1.223 0 11-2.446 0 1.223 1.223 0 012.446 0z"/><path d="M27.228 8v3.34l.703.067a.956.956 0 01.363.099c.085.047.168.12.23.267a.568.568 0 01.039.254l-.002.028v2.612a.556.556 0 01-.556.556h-.777V24c0 .689-.378 1.293-.952 1.627l-.387.225v2.149a.555.555 0 01-.556.556H24a.555.555 0 01-.556-.556V25.89H8.556v2.111a.555.555 0 01-.556.556H6.667a.555.555 0 01-.556-.556v-2.152l-.384-.225a1.882 1.882 0 01-.944-1.623v-8.777h-.782a.555.555 0 01-.556-.556v-2.667c0-.292.222-.532.512-.555h.001l.019-.001.066-.003.741-.034V8.002A4.561 4.561 0 019.34 3.446h13.333a4.561 4.561 0 014.556 4.556zM5.895 24.777h20.216V23.04l.008-6.484H5.896v8.221zm0-9.333h9.554V8.556H5.895v6.888zm10.666 0h9.554V8.556h-9.554v6.888zm-10.871-8h20.631l-.682-1.169a3.437 3.437 0 00-2.967-1.719H9.339a3.436 3.436 0 00-2.967 1.719L5.69 7.444z"/></symbol><symbol id="icon-bx-chalkboardsvg" viewBox="0 0 32 32"><path d="M8.777 16.777h3.779v1.112H8.777v-1.112z"/><path d="M26.667 23.223h-6.888l2.866 3.822-.89.667-3.367-4.489h-4.777l-3.367 4.489-.89-.667 2.866-3.822H5.332a1.892 1.892 0 01-1.889-1.889V6.667c0-1.041.848-1.889 1.889-1.889h21.333c1.041 0 1.89.848 1.89 1.889v14.667a1.892 1.892 0 01-1.889 1.889zM4.556 5.89v16.221h22.889L27.444 5.89H4.556z"/></symbol><symbol id="icon-bx-copy-altsvg" viewBox="0 0 32 32"><path d="M8.777 16.777h6.446v1.112H8.777v-1.112zM8.777 22.111h6.446v1.112H8.777v-1.112z"/><path d="M26.667 20.556h-6.11v6.111c0 1.041-.848 1.89-1.889 1.89H5.335a1.892 1.892 0 01-1.889-1.89V13.334c0-1.041.848-1.889 1.889-1.889h6.111V5.334c0-1.041.848-1.889 1.889-1.889h13.333c1.041 0 1.889.848 1.889 1.889v13.333a1.892 1.892 0 01-1.889 1.889zm-22.111-8v14.888h14.89l-.003-14.888H4.556zm16 6.888h6.888V4.556H12.556v6.888h6.111c1.041 0 1.889.848 1.889 1.889v6.111z"/></symbol><symbol id="icon-bxl-codepensvg" viewBox="0 0 32 32"><path d="M16.196 3.409l12.235 8.118c.112.071.18.2.177.322v8.241a.38.38 0 01-.066.214l-.001.001a.372.372 0 01-.11.106l-.005.003-12.237 8.121a.357.357 0 01-.209.063.36.36 0 01-.209-.065l-.005-.003-12.224-8.112a.38.38 0 01-.19-.342v-8.227a.367.367 0 01.167-.313l.011-.006 12.242-8.124a.433.433 0 01.42.001l.004.003zm5.87 12.079l5.487-3.641-11.198-7.428v7.228l5.711 3.841zm-6.462-3.84V4.419l-11.195 7.43 5.484 3.639 5.711-3.841zM9.22 15.944l-5.113-3.395v6.834l5.113-3.439zM4.404 20.09l11.2 7.43v-7.338l-5.708-3.787-5.492 3.695zm6.17-4.152l5.404 3.59 5.409-3.59-5.409-3.637-5.404 3.637zm5.782 4.243v7.339l11.198-7.431-5.488-3.696-5.71 3.787zm6.386-4.237l5.115 3.439V12.55l-5.115 3.394z"/></symbol><symbol id="icon-bx-printersvg" viewBox="0 0 32 32"><path d="M24.236 10.934h-5.874V9.745h5.874v1.189z"/><path d="M8.188 25.99v-5.145H5.547a1.892 1.892 0 01-1.889-1.889V8.708a3.228 3.228 0 013.223-3.223h18.667a3.228 3.228 0 013.223 3.223v10.248a1.892 1.892 0 01-1.89 1.889h-2.644v5.145a.894.894 0 01-.892.892H9.08a.894.894 0 01-.892-.892zm16.048-10.927v4.67h3.421V8.708a2.113 2.113 0 00-2.111-2.111H6.879a2.113 2.113 0 00-2.111 2.111v11.025h3.418v-4.67c0-.491.401-.892.892-.892h14.265c.491 0 .892.401.892.892zM9.217 15.2v10.653h13.992L23.207 15.2H9.217z"/><path d="M13.928 20.785l1.143 1.524 2.286-3.048 2.971 3.962h-8.229l1.829-2.438z"/></symbol><symbol id="icon-bxs-t-shirtsvg" viewBox="0 0 32 32"><path d="M19.12 16.06c.84 0 1.521-.681 1.521-1.521v-1.425h-3.042v1.425c0 .84.681 1.521 1.521 1.521z"/><path d="M10.965 4.285l-.095.031c-1.838.595-5.445 1.776-7.198 2.351l-.094.031c-.548.18-.911.688-.911 1.264v4.955c0 .867.815 1.504 1.656 1.293L8 13.291V26.71c0 .736.596 1.333 1.333 1.333h13.333c.737 0 1.333-.597 1.333-1.333V13.291l3.677.919a1.332 1.332 0 001.656-1.293V7.962c0-.576-.363-1.084-.912-1.264-1.715-.562-5.419-1.776-7.291-2.382l-.095-.031a37.083 37.083 0 00-1.033-.327h-.002c0 .393-.057.772-.162 1.131l-.004.012a4.002 4.002 0 01-7.668 0l-.003-.012A4.02 4.02 0 0112 3.958h-.002c-.03.005-.423.13-1.033.327zm12.011 1.833c1.811.591 3.916 1.281 5.089 1.665a.18.18 0 01.125.178v4.955a.19.19 0 01-.236.185l-5.098-1.274v14.882a.19.19 0 01-.191.19H9.332a.19.19 0 01-.19-.19V11.827l-5.098 1.274a.19.19 0 01-.236-.185V7.961a.18.18 0 01.124-.178l.094-.031a3934.471 3934.471 0 017.048-2.302 5.144 5.144 0 009.846 0l2.053.668z"/></symbol><symbol id="icon-Group-292" viewBox="0 0 58 32"><path  d="M2.318 27.451H0v-1.426h6.323v1.429H4.005v3.938H2.317v-3.941zM12.804 26.025v5.345h-1.631v-3.108L8.36 31.379H6.92v-5.345h1.631v3.117l2.813-3.117 1.44-.008zM15.615 31.378h-1.632v-5.345h1.632v1.969h2.622v-1.969h1.631v5.345h-1.631v-1.992h-2.622v1.992zM21.044 31.378v-5.345h1.631v1.44h1.688a3.49 3.49 0 011.193.146 1.805 1.805 0 011.226 1.789 1.85 1.85 0 01-1.406 1.857c-.334.089-.679.13-1.024.124l-3.308-.011zm1.631-1.294h1.406c.217.02.436-.007.641-.079a.669.669 0 00.416-.63.601.601 0 00-.439-.591 1.889 1.889 0 00-.63-.067h-1.406l.011 1.367zM29.153 31.378h-1.631v-5.345h1.631v2.014h.45l1.969-2.014h2.048l-2.61 2.565 2.712 2.79H31.55l-1.947-2.025h-.45v2.014z"/><path d="M40.616 28.711c0 1.598-1.316 2.835-3.499 2.835s-3.511-1.238-3.511-2.835c0-1.598 1.316-2.833 3.525-2.833s3.485 1.235 3.485 2.833zm-1.71 0c0-.878-.709-1.519-1.789-1.519s-1.789.641-1.789 1.519.698 1.53 1.789 1.53 1.789-.653 1.789-1.53zM49.28 28.7c0 1.53-1.226 2.329-3.286 2.374v.54h-1.632v-.54c-2.048-.045-3.274-.844-3.274-2.374s1.226-2.397 3.274-2.442v-.537h1.632v.532c2.059.051 3.286.917 3.286 2.447zm-4.918-1.283c-1.125.045-1.62.563-1.62 1.283s.495 1.181 1.62 1.226v-2.509zm3.252 1.283c0-.72-.484-1.238-1.62-1.283v2.509c1.136-.045 1.62-.506 1.62-1.226zM57.946 28.7c0 1.53-1.226 2.329-3.286 2.374v.54h-1.632v-.54c-2.048-.045-3.274-.844-3.274-2.374s1.226-2.397 3.274-2.442v-.537h1.632v.532c2.056.051 3.286.917 3.286 2.447zm-4.917-1.283c-1.125.045-1.62.563-1.62 1.283s.495 1.181 1.62 1.226v-2.509zm3.252 1.283c0-.72-.484-1.238-1.62-1.283v2.509c1.134-.045 1.617-.506 1.617-1.226h.003zM24.129 14.425c.281-.233.537-.349.526-.911-.442.225-1.688.214-2.214-.506-.149-.205 0-.307.152-.146.357.405 1.018.222 1.26.104a.95.95 0 00-.225-.399c.09-.09.346-.222.399-.45a3.22 3.22 0 00-.681-.127.462.462 0 00.129-.5c-.543.166-1.212-.059-1.364-.259s0-.383.129-.253c.281.281 1.601.61 2.096.115a.74.74 0 01-.428-.309c.459-.045.824-.315.844-.653a2.028 2.028 0 01-.895-.141.57.57 0 00.428-.408c-.844-.051-.906-.672-.909-.776.546.315 1.508.174 1.257-.599-.453-.025-.911-.759.338-1.435 1.125-.613 2.425-1.277 2.312-2.366-.076-.698-1.224-1.173-1.37-1.527-.478.228-.563.492-.36.937 0 0-1.069.107-1.153-.563a1.01 1.01 0 01.371-.782c-.121 0-.925-.217-1.167.442-.453-.307-.844-.298-1.142.028.484.281.785 1.274 1.586 1.567-.563.309-1.494.18-2.031-.771-.509.768-.802 1.527.281 2.337-1.989.906-1.969 2.633-3.702 3.457.177.47.546.47 1.015.397-.748.97-.11 1.989-1.294 2.402.11.397.332.712.771.596-.124.194-.205.188-.399.402.647.408 1.406.113 1.589-1.195.031-.233.352-.087.242.141-.737 1.525 1.125 2.672.467 3.792.582-.025 1.024-.07 1.269-.267.121.212.178.454.163.698a.512.512 0 00.462-.472c.211.613.962 1.269 2.169 1.269-.639-.909-.045-1.834-.948-2.875l.025.008zm-1.215 1.117l-.259.439a5.594 5.594 0 00-.366-.799c-.205.428-.534.436-.844.436.09-1.015-1.193-2.042-.63-3.207a.483.483 0 00.033-.363.466.466 0 00-.236-.279c-.861-.436-.461 1.376-1.322 1.429a2.28 2.28 0 00.25-.672c-.183.048-.622.326-.819-.031a1.406 1.406 0 00.726-1.097c.041-.335.122-.663.242-.979.182-.321.396-.622.639-.9-.087 0-1.055.217-1.271.115 1.674-1.027 1.297-2.335 3.845-3.496-.669-.498-1.353-.892-.864-1.842.698.844 2.028.563 2.743.157-.709-.141-1.623-.765-1.84-1.46.281-.042.613.248.813.383.096-.256.135-.563.444-.619-.413.889.405 1.35 1.187 1.353.121 0 .627-.051.627-.051-.082-.166-.408-.619-.169-.804.191.18.419.324.627.481 1.519 1.176-.723 2.264-1.64 2.759-1.44.776-1.055 1.702-.453 1.938 0 .104-.067.152-.166.183-.419.141-.816-.16-1.151-.352.02.579-.02 1.125.622 1.457l-.442.163c.38.281.495.442.954.501a2.07 2.07 0 01-.706.124c.045.186.121.363.225.523-.937.113-1.311-.425-1.601-.402-.619.045-.579 1.21.942 1.21l-.158.262c.175.099.365.166.563.2-.101.082-.2.191-.281.281l.242.208c-.622.113-.796-.563-1.198-.231-.613.487.74 1.513 2.039 1.361a4.154 4.154 0 01-.546.453c1.058.999.537 1.941.97 2.63a1.91 1.91 0 01-1.746-1.454z"/><path d="M21.271 11.907c.219.228.487.253.99.219-.563-.068-.866-.203-1.06-.563a5.422 5.422 0 01-.056-.61c.017-.718.216-1.42.579-2.039a1.427 1.427 0 001.221 1.353c-.759-.332-1.207-1.08-.962-1.803.158-.253.338-.515.537-.779.101-.129.197-.25.281-.366-.101.369.343.751.644.813-.163-.157-.509-.672.281-1.53a3.655 3.655 0 00-.658.402c1.457-1.575 2.655-1.62 3.207-2.413-.799.546-2.909.844-3.857.582.523.349 1.786.318 2.093.253-1.03 1.001-3.274 2.034-3.657 2.954a2.618 2.618 0 011.376-.866 9.17 9.17 0 00-.94 1.615c-.596 1.297-1.406 1.314-1.449 2.385.281-.844.827-1.041 1.21-1.584a5.294 5.294 0 00-.087 1.179c.01.443.099.88.264 1.291-.039.529 0 1.432.616 2.031a2.74 2.74 0 01-.464-1.688c.475.917 1.828 2.183 2.484 3.032-.655-1.094-2.25-2.371-2.605-3.848zM36.261 7.502c.539.136 1.02.439 1.376.866-.388-.92-2.636-1.952-3.657-2.954.309.065 1.572.098 2.096-.253-.948.259-3.06-.037-3.857-.582.563.793 1.75.844 3.207 2.413a3.633 3.633 0 00-.658-.402c.802.858.456 1.37.281 1.53.298-.065.745-.444.644-.813.096.115.194.239.281.366.2.264.377.526.534.779.242.723-.205 1.471-.962 1.803a1.42 1.42 0 001.218-1.353c.364.619.563 1.321.579 2.039a5.422 5.422 0 01-.056.61c-.194.368-.506.504-1.058.563.503.031.768 0 .99-.219-.346 1.474-1.949 2.754-2.605 3.848.655-.844 2.008-2.115 2.484-3.032a2.742 2.742 0 01-.464 1.688c.605-.596.653-1.499.613-2.031a3.71 3.71 0 00.264-1.291 5.24 5.24 0 00-.087-1.179c.383.546.937.754 1.21 1.584-.051-1.072-.844-1.089-1.449-2.385a9.048 9.048 0 00-.94-1.615z"/><path d="M38.86 9.938c.47.073.844.073 1.015-.397-1.73-.824-1.716-2.551-3.702-3.457 1.091-.81.799-1.572.281-2.338-.537.951-1.463 1.08-2.031.771.802-.281 1.103-1.28 1.586-1.567-.287-.326-.681-.346-1.131-.045-.245-.655-1.046-.442-1.167-.442a1.013 1.013 0 01.371.782c-.084.658-1.151.563-1.151.563.214-.444.121-.709-.36-.937-.146.354-1.294.83-1.367 1.527-.115 1.091 1.176 1.752 2.309 2.366 1.249.675.79 1.406.338 1.435-.25.776.712.914 1.257.599 0 .104-.07.726-.909.776a.556.556 0 00.428.408c-.284.113-.59.161-.895.141.031.338.397.608.844.653a.732.732 0 01-.425.318c.495.492 1.826.169 2.096-.115.124-.129.281.056.129.25s-.821.428-1.364.262a.46.46 0 00.127.501c-.226.018-.45.061-.667.127.051.228.309.36.399.45a.966.966 0 00-.236.399c.242.118.906.301 1.26-.104.143-.16.301-.059.155.146-.523.72-1.772.731-2.214.506 0 .563.231.678.526.914-.903 1.041-.307 1.969-.945 2.875 1.204 0 1.969-.655 2.169-1.269a.512.512 0 00.462.472 1.282 1.282 0 01.163-.698c.245.197.689.242 1.269.267-.658-1.125 1.207-2.264.467-3.792-.11-.228.211-.374.242-.141.172 1.305.942 1.603 1.589 1.195-.194-.214-.281-.208-.399-.402.436.115.658-.2.771-.596-1.184-.416-.546-1.432-1.294-2.402l.003-.003zm.096 2.599c.045.237.129.465.248.675-.861-.056-.461-1.868-1.322-1.432a.468.468 0 00-.236.279.465.465 0 00.033.363c.563 1.165-.72 2.191-.647 3.212-.318 0-.647 0-.844-.436a5.706 5.706 0 00-.366.799l-.259-.439a1.921 1.921 0 01-1.747 1.455c.433-.689-.087-1.629.97-2.63a4.22 4.22 0 01-.546-.453c1.3.155 2.653-.875 2.037-1.361-.402-.318-.579.343-1.198.231l.242-.208c-.084-.084-.183-.194-.281-.281.198-.033.388-.101.563-.2l-.158-.262c1.522 0 1.558-1.165.942-1.21-.281-.023-.667.512-1.601.402.103-.161.179-.338.225-.523a2.07 2.07 0 01-.706-.124c.458-.059.563-.214.954-.501l-.442-.163c.641-.321.602-.878.619-1.457-.335.194-.731.492-1.148.352-.098-.034-.166-.079-.166-.183.602-.236.985-1.162-.453-1.938-.928-.503-3.173-1.589-1.651-2.754.208-.158.433-.301.624-.481.239.183-.087.636-.169.805 0 0 .506.051.624.051.782 0 1.603-.467 1.19-1.353.312.065.349.363.442.619.2-.135.546-.425.813-.383-.217.695-1.125 1.319-1.84 1.46.717.391 2.045.681 2.743-.158.489.948-.191 1.345-.864 1.842 2.551 1.165 2.174 2.47 3.848 3.496-.217.101-1.187-.101-1.271-.115.244.277.459.579.641.9.121.315.204.644.248.979a1.411 1.411 0 00.725 1.097c-.197.357-.633.079-.816.031zM26.813 15.387l.363-.309-.056-.113c-.039-.079-.02-.084.023-.115l.191-.143a.151.151 0 01.147-.02l.563.135h-.593a.234.234 0 00-.233.166l-.042.087-.157.321a.367.367 0 00.059.425l.11.129-.219.459h.188l.155-.315c.13-.119.227-.269.281-.436-.065-.053-.113-.09-.076-.166l.07-.149c.023-.051.031-.07.098-.056l.605.132a.21.21 0 00.267-.067c.084-.127.096-.113.281-.093l.309.034c.348.045.701-.024 1.007-.197.069.115.144.227.225.335.02.037 0 .09-.039.158l-.335.821h.534l.304-.757a.44.44 0 01.101-.158l-.174.914h.518l.138-.906c.031-.2 0-.264-.084-.349-.217-.183-.211-.563-.281-.799a.208.208 0 01.129-.025c.113 0 .197.301.332.484.264.374.627.785 1.044.205a1.35 1.35 0 00-.135-.183l-.115-.135c-.068-.076-.388-.442-.523-.563a.781.781 0 00-.959-.112c-.422-.219-.866 0-.973 0l-.726-.045a.14.14 0 01-.118-.07l.135-.045c-.127-.526-.444-.968-.999-1.041 0 0-.034-.166-.115-.2l-.166.197a.58.58 0 00-.141.039l-.709-.264.532.537s-.264.383-.352.461a.144.144 0 000 .2l.104.135c.053.07.113.068.197.023l.115-.059c.051-.042.222.042.281-.025a2.11 2.11 0 00-.048.419l-.478-.056a.244.244 0 00-.216.051l-.408.312a.355.355 0 00-.093.45l.16.343zm3.938.09l-.323.796h-.2l.323-.771c.034-.098-.031-.146-.11-.256.112.066.23.122.352.169a.36.36 0 00-.039.062h-.003zm-3.114-1.727l-.093.048c-.065.037-.096.053-.152-.017l-.039-.051c-.013-.02-.018-.044-.016-.067s.013-.045.03-.062l.397-.464-.366-.301.467.172.172-.214c.051.042.034.166.034.166a.94.94 0 01.756.954.452.452 0 00.281.194l.807.048c.132 0 .467-.256.897 0a.872.872 0 01.343-.132 1.045 1.045 0 01.866.501c.152.191.36.487.36.487-.09.107-.177.141-.25.115a.374.374 0 01-.183-.281.872.872 0 00-.281-.368c.059.135.101.277.124.422-.315-.312-.374-.695-.596-.745a.323.323 0 00-.317.141c.113.259.107.563.219.757.087.149.104.163.143.197.093.068.039.186.025.281l-.121.748h-.203l.132-.734c.039-.222-.588-.222-.909-.65-.281.321-1.041.239-1.373.188a.285.285 0 00-.338.121c-.042.076-.115.053-.16.042l-.605-.129a.139.139 0 00-.121.001.142.142 0 00-.078.091l-.121.25c-.015.023-.022.051-.017.079s.018.053.04.07l.059.062a.502.502 0 01-.143.211l-.132-.149a.265.265 0 01-.017-.281l.197-.408a.156.156 0 01.146-.092h.748l-.231-.374c-.172-.281.113-.779.07-1.015-.023.315-.402.172-.464.214l.011-.023zm-.816.942l.354-.281c.022-.024.05-.043.081-.055s.064-.017.097-.015l.501.065a.83.83 0 00.107.239l-.532-.112a.183.183 0 00-.169.045l-.253.191c-.023.02-.037.047-.041.077s.003.06.019.086l.042.087-.177.132-.068-.127c-.067-.135-.073-.259.039-.346zM28.365 5.077c.171.108.351.202.537.281V5.13l-.757-.281s0 .093.219.242zM28.903 4.802v-.228l-.858-.307c.098.097.206.183.321.259.171.109.351.203.537.281zM28.903 4.284v-.231l-.94-.346s.183.149.402.298c.171.108.351.202.537.281z"/><path d="M31.544 7.407h.962a.45.45 0 00-.47-.281.54.54 0 00-.492.281zM30.537 3.71l-.94.346v.231c.187-.079.366-.173.537-.281.219-.149.402-.298.402-.298zM30.354 4.838l-.757.281v.228c.186-.079.366-.173.537-.281.219-.149.219-.242.219-.242zM30.458 4.267l-.844.307v.228c.187-.079.366-.173.537-.281.115-.075.223-.162.321-.259zM26.464 7.125a.446.446 0 00-.469.282h.962a.547.547 0 00-.492-.281z"/><path d="M31.159 3.094c0-.54-.909-1.024-1.91-1.024s-1.91.484-1.91 1.024l.023.132.399 2.295-1.882 1.105a1.135 1.135 0 00-.498.779h.346a.768.768 0 01.798-.669c.436.022.695.281.954.669l.067.101.096.149h-2.785c.233.403.37.855.399 1.319v5.783c0 1.491 1.145 2.2 2.385 2.2.956 0 1.086-.042 1.615.484.526-.529.655-.484 1.615-.484 1.238 0 2.383-.709 2.383-2.2V8.965c.028-.465.164-.916.397-1.319h-2.788l.096-.149.068-.101c.256-.38.515-.644.954-.67a.765.765 0 01.793.678h.346a1.128 1.128 0 00-.489-.779l-1.893-1.103.399-2.295.023-.135zm-3.432.265l1.406.481v2.211l-1.041-.549-.366-2.143zm.346 4.692c.208.271.508.455.844.518a.718.718 0 00.245.399.714.714 0 00.279.746.695.695 0 00.256.114.565.565 0 00.38.425l-.295.34a.434.434 0 01-.382.158l-1.319-.149c.056-.146-.096-.318-.512-.245l.518-1.449-.318-.675-.599.512-.045 1.522-.253-.127c-.335-.143-.433.461-.115.464h.127c-.007.028-.005.058.006.085s.029.05.053.067c-.015.009-.028.022-.036.038s-.013.033-.013.051.005.035.013.051a.11.11 0 00.036.038.124.124 0 00-.064.093.123.123 0 00.038.107.285.285 0 00.045.352c.031.03.068.052.109.064.188.051.307-.155.346-.281l2.053.636a.703.703 0 00.74-.174l.535-.47a.56.56 0 00.281.675 2.802 2.802 0 00-.023.399h-5.345V8.96a2.673 2.673 0 00-.2-.92l2.616.011zm2.208 1.282a.694.694 0 00.031.689l-.087.087c-.385-.048-.537-.622-.537-.622a.964.964 0 000 .152.538.538 0 01-.355-.563.913.913 0 00.281.098l.025-.169a.592.592 0 01-.486-.414h.107c.15 0 .3-.021.444-.062a.74.74 0 00.509.295.824.824 0 00.067.501v.006zm.563 1.514a.559.559 0 00-.09.177l-.214.197a1.038 1.038 0 00-.36-.844l.228-.225.045.045a.516.516 0 00.062.402.527.527 0 00.33.24v.008zm-1.027-.096l.177-.172a.963.963 0 01.343.844l-.191.177a.683.683 0 01-.121.093 1.049 1.049 0 00-.205-.94l-.003-.003zm-.377.149a.369.369 0 00.194-.028.963.963 0 01.079.906.975.975 0 01-.264-.039l-.067-.02c.117-.257.136-.548.053-.819h.006zm-.453-.056l.25.031c.045.262.004.532-.118.768l-.281-.084c.128-.216.184-.467.16-.717l-.011.003zm-.518-.062l.301.037c.023.238-.026.477-.141.686l-.307-.09a.994.994 0 00.146-.633zm-1.223-.081a.142.142 0 01-.142-.013c-.02-.015-.036-.035-.046-.058s-.013-.048-.009-.073a.47.47 0 01.478.017c.073.048.135.18.236.262-.02.131-.051.26-.093.385a.285.285 0 01-.263-.333.283.283 0 01.071-.141.186.186 0 00-.236-.05l.003.003zm-.2.559c.061.024.126.04.191.045a.108.108 0 01-.084.096.114.114 0 01-.045.001c-.014-.005-.027-.012-.038-.022s-.02-.022-.025-.036c-.006-.014-.009-.028-.009-.043s.004-.029.01-.043zm-.281-.807c-.016-.008-.029-.022-.037-.038s-.009-.035-.004-.053a.08.08 0 01.081-.059c.084 0 .197.098.309.146a1.076 1.076 0 01-.349 0v.003zm.281.585c.059.059.242.037.242.037v.037c-.079.107-.301.059-.25-.073h.008zm.236-.121c-.132.053-.264-.02-.222-.104.059.056.231.028.231.028l-.008.076zm.192-1.519l-.25.911.084-1.471.388-.332.197.433-.498 1.429.132-.962c0-.068-.042-.076-.053 0v-.008zm.039 1.103c.119-.008.239-.002.357.017.059.025.02.121-.056.113a1.634 1.634 0 01-.301-.129zm.436.222l.304.037c.019.203-.024.407-.124.585l-.281-.084c.068-.18.108-.37.118-.563l-.017.025zm4.914 4.02a1.664 1.664 0 01-.867 1.536l.194-.394h-.188l-.248.506c-.28.103-.576.155-.875.152-.987 0-1.249.039-1.615.405-.368-.363-.627-.405-1.615-.405a2.491 2.491 0 01-.872-.149l.248-.506h-.191l-.219.444a3.675 3.675 0 01-.152-.079l.18-.363h-.186l-.135.281a1.683 1.683 0 01-.672-1.407v-2.219h7.195l.017 2.197zm.2-6.709a2.622 2.622 0 00-.203.92v3.375h-.394a2.288 2.288 0 01-.329-.748.953.953 0 00.118.749h-.506a2.952 2.952 0 01-.233-.768c-.152.172-.056.639.039.768h-.335a1.693 1.693 0 01.048-.501c-.174-.034-.363-.127-.363-.321a.258.258 0 00.248.082l.143-.112c-.475.014-.495-.504-.121-.748-.374 0-.655-.211-.518-.61a.562.562 0 01-.163-.789.669.669 0 01-.076-.666.744.744 0 01-.52-.205h-.031c.224-.09.418-.24.563-.433l2.633.008zm-1.432-1.626c-.391.067-.726.546-1.001.976l-.031.051h-.281v.051c-.031.332-.346.782-1.041.782a1.147 1.147 0 01-.729-.233.843.843 0 01-.281-.399.68.68 0 01-.031-.149v-.051h-.281l-.07-.028c-.281-.43-.61-.906-.999-.976l1.06-.616 1.308.703 1.302-.709 1.075.599zm-1.218-.923l-1.041.548V3.839l1.406-.481-.366 2.127zm-1.159-1.89l-1.547-.608c.129-.309.737-.563 1.544-.563s1.406.264 1.544.563l-1.541.608z"/><path d="M32.683 10.219v-.169c-.518 0-.639-.624-.639-.624a.626.626 0 00.638.794zM32.028 11.271l-.053-.16c-.442.113-.669-.588-.669-.588a.6.6 0 00.411.746.59.59 0 00.312.002zM32.349 10.619c-.529.084-.745-.532-.745-.532a.59.59 0 00.1.467.6.6 0 00.409.245.467.467 0 00.424.565.46.46 0 00.257-.059l-.051-.152a.345.345 0 01-.4-.118.347.347 0 01.009-.417zM32.019 8.86v-.169c-.698-.143-.639-.624-.639-.624a.622.622 0 00.636.793zM27.592 15.902l-.25.506h.189l.25-.506h-.188zM27.969 15.902l-.25.506h.191l.248-.506h-.188zM29.482 15.902l-.25.506h.189l.25-.506h-.188zM29.862 15.902l-.25.506h.188l.248-.506h-.186zM29.105 15.902l-.25.506h.188l.25-.506h-.188zM31.313 16.408h.188l.25-.506h-.189l-.25.506zM28.348 15.902l-.25.506h.188l.25-.506h-.188zM28.725 15.902l-.25.506h.191l.248-.506h-.188zM27.87 13.173a.078.078 0 00-.082.038c-.008.014-.012.03-.011.046s.007.031.018.044c.01.012.024.021.04.026s.032.004.047-.001.028-.015.038-.028.015-.029.015-.045c.002-.019-.004-.038-.016-.053s-.029-.024-.048-.026zM29.254 1.727a2.846 2.846 0 011.738.534c.079-.409.232-.801.45-1.156l-.624.07-.326-.695-.627.326-.61-.605-.608.605-.633-.326-.329.695-.622-.07c.219.355.371.747.45 1.156a2.842 2.842 0 011.741-.534zm-1.457-.281l.298-.63.563.281.596-.585.61.602.563-.281.281.63.366-.056a2.823 2.823 0 00-.231.546 3.264 3.264 0 00-3.184 0 2.876 2.876 0 00-.231-.546l.369.039z"/><path d="M29.89.484c.022.002.044 0 .065-.007s.04-.017.057-.031c.017-.014.031-.031.041-.051s.016-.041.018-.063A1.041 1.041 0 0029.947 0s-.2.214-.205.304a.167.167 0 00.15.177zM30.911.855c.039.02.084.024.126.01s.076-.042.097-.081c.025-.116.03-.234.014-.352 0 0-.264.118-.307.2a.17.17 0 00.071.222zM28.613.484a.165.165 0 00.152-.177c0-.093-.205-.304-.205-.304-.06.103-.102.215-.124.332a.165.165 0 00.177.152zM27.589.855a.165.165 0 00.067-.222c-.042-.082-.307-.2-.307-.2-.015.117-.009.236.017.352a.165.165 0 00.096.082.165.165 0 00.126-.011zM39.864 6.481a.887.887 0 00.47-.478c-.563-.082-2.028-.698-3.24-.194.453-.43.861-.487.9-1.105a.43.43 0 00.371.112.445.445 0 00.316-.225c-.124-.369-.442-.07-.484-.172s.397.045.498-.436c-.357-.124-.464.169-.529.101s.228-.188.017-.563c-.371.217-.177.464-.256.489s-.02-.262-.433-.248c-.039.442.388.456.315.526s-.194-.253-.506-.082a.462.462 0 00.173.391.468.468 0 00.421.078c-.048.678-.669.563-1.125 1.316.982.504 1.423 1.381 2.028 1.986a3.45 3.45 0 00.54-.771.791.791 0 00.868.173.791.791 0 00.258-.173c-.225-.231-.233-.405-.577-.72l-.023-.008zm-.928.132a1.112 1.112 0 01-.118 1.069 4.473 4.473 0 00-1.269-1.62c-.09-.056.048-.16.298-.191.757-.143 1.64.177 2.062.281a1.08 1.08 0 01-.563.236c.262.203.494.444.686.714-.298.073-.464-.113-1.103-.498zM32.613 17.913v-.827a7.575 7.575 0 01-2.515.627l-.048.295c.09 0 .203.023.352.034a8.568 8.568 0 01-2.329 0c.149 0 .262-.02.352-.034l-.048-.295a7.583 7.583 0 01-2.498-.627v.827l-.844.357c.716.361 1.471.638 2.25.827l-.101.346a7.71 7.71 0 004.186 0l-.101-.346a10.491 10.491 0 002.25-.827l-.906-.357zm-7.128.377l.585-.236v-.675a9.812 9.812 0 001.578.436l-.332 1.083a9.68 9.68 0 01-1.831-.613v.006zm3.769 1.246a7.922 7.922 0 01-1.859-.233l.352-1.125a9.123 9.123 0 003.013 0l.352 1.125a7.928 7.928 0 01-1.859.233h.003zm1.933-.633l-.335-1.089a9.831 9.831 0 001.578-.442v.675l.585.236a9.54 9.54 0 01-1.831.613zM19.173 7.198c.144.28.326.539.54.771.605-.605 1.049-1.482 2.028-1.986-.464-.762-1.086-.636-1.125-1.316a.464.464 0 00.591-.47c-.312-.172-.422.169-.506.082s.357-.084.315-.526c-.411 0-.335.281-.433.248s.115-.281-.256-.489c-.211.388.076.509.017.563s-.172-.225-.529-.101c.096.478.563.281.495.436s-.36-.197-.484.172a.436.436 0 00.684.113c.039.622.447.672.9 1.105-1.212-.504-2.686.115-3.24.194a.878.878 0 00.47.475c-.343.318-.352.492-.563.72 0 0 .459.504 1.125 0l-.028.011zm-.659-.107c.193-.271.425-.512.689-.715a1.108 1.108 0 01-.563-.239c.422-.113 1.308-.43 2.062-.281.248.034.388.135.298.191a4.478 4.478 0 00-1.271 1.62c-.109-.154-.177-.332-.197-.519s.007-.376.079-.55c-.639.385-.805.563-1.103.498zM28.72 6.737v.366a.456.456 0 01.369-.121v.526a.787.787 0 01-.098.371h.526a.779.779 0 01-.101-.371v-.529a.458.458 0 01.369.121v-.366h-1.063v.003z"/><path d="M24.129 14.439c.281-.233.537-.349.526-.911-.442.225-1.688.214-2.214-.506-.149-.205 0-.307.152-.146.357.405 1.021.222 1.26.104a.944.944 0 00-.225-.411c.09-.09.346-.222.399-.45a3.22 3.22 0 00-.681-.127.455.455 0 00.126-.501c-.543.166-1.21-.059-1.364-.259s0-.383.129-.25c.281.281 1.601.608 2.096.115a.738.738 0 01-.425-.315c.459-.045.824-.315.844-.653a2.028 2.028 0 01-.895-.141.57.57 0 00.428-.408c-.844-.051-.903-.672-.909-.776.546.315 1.508.174 1.257-.599-.453-.025-.911-.759.338-1.432 1.125-.613 2.425-1.277 2.309-2.366-.073-.698-1.224-1.173-1.367-1.527-.478.228-.563.492-.36.937 0 0-1.069.107-1.153-.563a1.01 1.01 0 01.371-.782c-.121 0-.925-.217-1.167.439-.45-.307-.844-.295-1.139.028.484.281.785 1.274 1.587 1.567-.563.309-1.491.18-2.031-.771-.509.768-.802 1.527.281 2.338-1.989.906-1.969 2.633-3.702 3.457.174.47.546.47 1.015.397-.748.97-.11 1.989-1.294 2.402.113.397.335.712.771.596-.124.194-.205.188-.399.402.647.408 1.406.113 1.587-1.195.031-.233.352-.087.242.141-.737 1.525 1.125 2.672.467 3.789.582-.025 1.024-.07 1.266-.264.121.211.177.452.163.695a.509.509 0 00.462-.472c.211.613.962 1.271 2.166 1.271-.61-.9-.011-1.826-.917-2.852zm-1.19 1.125l-.256.436a5.759 5.759 0 00-.366-.799c-.205.428-.534.436-.844.436.065-1.032-1.221-2.059-.658-3.224a.463.463 0 00.032-.362.48.48 0 00-.234-.279c-.861-.436-.461 1.375-1.322 1.432.118-.21.203-.438.25-.675-.183.048-.619.326-.816-.031a1.414 1.414 0 00.726-1.097c.041-.335.121-.663.239-.979.182-.321.396-.622.639-.9-.087 0-1.052.217-1.271.115 1.674-1.027 1.297-2.332 3.845-3.496-.669-.498-1.353-.894-.861-1.842.698.844 2.025.563 2.743.16-.709-.141-1.62-.768-1.837-1.46.267-.042.613.248.813.383.096-.256.135-.563.444-.619-.413.886.405 1.35 1.184 1.353.121 0 .627-.051.627-.051-.082-.166-.408-.619-.172-.802.191.18.419.324.627.481 1.519 1.176-.723 2.264-1.64 2.76-1.437.776-1.052 1.702-.453 1.938 0 .104-.067.149-.166.183-.419.141-.816-.16-1.151-.352.02.579-.02 1.125.622 1.457l-.442.16c.38.281.495.442.954.501a2.07 2.07 0 01-.706.124c.045.186.121.363.225.523-.937.113-1.311-.422-1.601-.402-.619.045-.579 1.21.942 1.21l-.158.259c.174.099.365.166.563.2-.101.082-.197.191-.281.281l.242.208c-.622.113-.796-.563-1.198-.231-.613.487.74 1.513 2.037 1.361a4.132 4.132 0 01-.546.45c1.058.999.534 1.941.97 2.63a1.916 1.916 0 01-1.744-1.454z"/><path d="M21.274 11.907c.219.231.487.253.99.222-.563-.068-.866-.203-1.06-.563a5.417 5.417 0 01-.053-.61c.016-.718.214-1.42.577-2.039a1.427 1.427 0 001.221 1.353c-.759-.332-1.204-1.08-.962-1.803.158-.253.338-.512.535-.779.101-.127.197-.25.281-.366-.101.369.343.748.641.813-.16-.157-.509-.672.281-1.53a3.75 3.75 0 00-.658.402c1.457-1.575 2.655-1.617 3.207-2.411-.774.534-2.883.841-3.834.56.523.349 1.786.318 2.093.253-1.029.999-3.274 2.034-3.657 2.951a2.62 2.62 0 011.376-.864 9.103 9.103 0 00-.939 1.615c-.596 1.297-1.407 1.314-1.449 2.385.281-.83.824-1.041 1.21-1.584a5.354 5.354 0 00-.087 1.179c.01.443.099.88.264 1.291-.039.529 0 1.432.613 2.028a2.734 2.734 0 01-.464-1.688c.475.917 1.828 2.183 2.484 3.032-.655-1.094-2.25-2.371-2.602-3.848zM36.258 7.508a2.626 2.626 0 011.373.864c-.388-.92-2.636-1.952-3.657-2.951.309.065 1.57.098 2.093-.253-.948.259-3.058-.037-3.857-.582.563.793 1.75.844 3.207 2.411a3.657 3.657 0 00-.661-.402c.802.858.456 1.373.281 1.53.298-.065.745-.444.644-.813.096.115.194.236.281.366.2.264.377.526.534.779.242.723-.205 1.471-.962 1.803a1.42 1.42 0 001.218-1.353c.364.619.563 1.321.579 2.039a5.422 5.422 0 01-.056.61c-.194.368-.506.504-1.06.563.506.031.771 0 .99-.222-.343 1.474-1.949 2.754-2.602 3.848.655-.844 2.008-2.115 2.484-3.032a2.742 2.742 0 01-.464 1.688c.608-.596.653-1.499.613-2.031.164-.41.254-.847.264-1.288a5.298 5.298 0 00-.087-1.179c.383.546.937.754 1.21 1.584-.053-1.069-.844-1.086-1.451-2.385a9.108 9.108 0 00-.94-1.615z"/><path d="M38.858 9.938c.47.073.844.073 1.015-.397-1.73-.824-1.713-2.551-3.702-3.457 1.091-.81.799-1.57.281-2.337-.537.951-1.463 1.08-2.031.771.799-.281 1.103-1.28 1.586-1.567-.284-.326-.681-.326-1.128-.045-.245-.655-1.046-.439-1.167-.439a1.003 1.003 0 01.371.782c-.084.658-1.151.563-1.151.563.217-.444.121-.709-.36-.937-.146.354-1.294.83-1.367 1.527-.115 1.091 1.176 1.752 2.309 2.366 1.249.675.79 1.406.338 1.432-.25.776.709.914 1.257.599 0 .104-.073.726-.909.776a.565.565 0 00.428.405c-.284.113-.59.161-.895.141.031.338.397.608.844.653a.745.745 0 01-.422.318c.495.492 1.826.169 2.096-.115.124-.129.281.053.127.25s-.821.428-1.364.262a.46.46 0 00.147.504c-.226.018-.45.061-.667.127.051.228.309.36.399.45a.955.955 0 00-.236.399c.242.118.906.301 1.26-.104.143-.16.301-.059.155.146-.523.72-1.772.731-2.214.506 0 .563.231.678.526.911-.903 1.041-.307 1.969-.945 2.875 1.204 0 1.969-.655 2.166-1.271a.512.512 0 00.462.472 1.278 1.278 0 01.163-.695c.245.197.689.242 1.269.264-.658-1.125 1.207-2.264.467-3.789-.11-.228.211-.374.242-.141.174 1.308.94 1.603 1.589 1.196-.194-.214-.281-.208-.399-.402.436.115.658-.2.771-.596-1.181-.416-.546-1.432-1.294-2.402h-.017zm.115 2.597c.046.237.131.465.25.675-.861-.056-.461-1.868-1.322-1.432a.477.477 0 00-.208.636c.563 1.165-.72 2.191-.647 3.212-.318 0-.647 0-.844-.436a5.878 5.878 0 00-.366.799l-.256-.436a1.92 1.92 0 01-1.744 1.454c.433-.689-.087-1.629.97-2.63a4.198 4.198 0 01-.546-.45c1.3.152 2.653-.875 2.037-1.361-.402-.318-.579.343-1.198.231l.242-.208c-.084-.084-.183-.194-.281-.281.198-.033.388-.101.563-.2l-.157-.259c1.519 0 1.558-1.165.942-1.21-.281-.023-.664.512-1.601.402.103-.161.179-.338.225-.523a2.07 2.07 0 01-.706-.124c.459-.059.563-.211.954-.501l-.442-.163c.641-.321.599-.878.619-1.457-.335.194-.731.492-1.148.352-.101-.034-.166-.079-.166-.183.602-.236.985-1.162-.453-1.938-.917-.495-3.159-1.584-1.64-2.759.208-.16.433-.304.624-.481.239.183-.087.636-.169.802 0 0 .506.051.624.051.782 0 1.603-.467 1.187-1.353.312.065.349.363.442.619.2-.135.546-.425.813-.383-.217.695-1.125 1.319-1.84 1.46.717.391 2.045.681 2.743-.16.489.948-.194 1.345-.864 1.842 2.551 1.162 2.174 2.467 3.845 3.496-.217.101-1.184-.101-1.271-.115.244.277.459.579.641.9.121.315.204.644.248.979a1.432 1.432 0 00.726 1.097c-.197.357-.633.079-.816.031zM26.813 15.387l.363-.309-.056-.11c-.039-.079-.02-.084.023-.115l.191-.143a.151.151 0 01.147-.02l.563.135h-.594c-.052-.002-.104.014-.146.044s-.073.075-.088.125l-.042.084-.158.321a.367.367 0 00.059.425l.11.132-.219.453h.188l.155-.315c.129-.119.226-.269.281-.436-.065-.053-.113-.093-.076-.166l.07-.149c.023-.051.031-.07.098-.056l.605.129a.207.207 0 00.267-.067c.082-.127.093-.113.281-.093l.309.034c.348.045.701-.024 1.007-.197.056.132.172.231.225.332.02.037 0 .09-.039.158l-.335.827h.535l.301-.757a.454.454 0 01.101-.158l-.172.914h.518l.138-.906c.031-.2 0-.267-.084-.349-.217-.183-.211-.563-.281-.799a.208.208 0 01.129-.025c.113 0 .197.298.332.484.264.374.627.785 1.044.205a1.35 1.35 0 00-.135-.183l-.115-.135c-.068-.076-.388-.442-.523-.563a.784.784 0 00-.957-.113c-.422-.222-.866 0-.97 0l-.726-.045a.14.14 0 01-.118-.07l.135-.045c-.127-.526-.444-.965-.999-1.041 0 0-.034-.166-.118-.197l-.166.194a.58.58 0 00-.141.039l-.709-.264.546.532s-.281.391-.368.467a.144.144 0 00-.042.1.14.14 0 00.042.1l.104.135c.053.07.113.068.197.023l.115-.062c.051-.042.222.042.281-.025a2.14 2.14 0 00-.048.422l-.478-.056c-.037-.009-.076-.009-.113-.001s-.072.026-.101.051l-.408.312a.355.355 0 00-.093.45l.157.343zm3.938.09l-.323.796h-.2l.323-.771c.034-.098-.031-.146-.11-.256.112.066.23.123.352.169a.497.497 0 00-.039.062h-.003zm-3.114-1.727l-.093.048c-.065.037-.096.053-.152-.017l-.039-.051a.105.105 0 01.014-.129l.397-.461-.366-.301.464.172.172-.214c.051.042.034.166.034.166a.94.94 0 01.756.954.454.454 0 00.281.191l.807.048c.135 0 .467-.256.897 0a.872.872 0 01.343-.132 1.04 1.04 0 01.864.5c.152.191.36.487.36.487-.09.107-.177.141-.25.115a.372.372 0 01-.182-.281.88.88 0 00-.281-.366c.06.134.103.276.127.422-.315-.312-.374-.692-.596-.745a.323.323 0 00-.317.141c.112.259.104.563.219.757.087.149.104.163.143.197.093.068.039.186.025.281l-.121.748h-.2l.132-.734c.039-.222-.585-.222-.909-.65-.281.321-1.041.239-1.373.191a.285.285 0 00-.338.121c-.042.073-.115.051-.16.042l-.605-.129a.139.139 0 00-.121.001.142.142 0 00-.078.091l-.121.25a.117.117 0 00.023.149l.056.062a.509.509 0 01-.143.211l-.132-.149a.263.263 0 01-.017-.281l.197-.408a.162.162 0 01.147-.096h.748l-.228-.374c-.172-.281.113-.779.07-1.015-.023.315-.405.172-.464.214l.011-.025zm-.813.942l.354-.281c.022-.024.05-.043.081-.055s.064-.017.097-.015l.501.065a.812.812 0 00.107.236l-.532-.113a.183.183 0 00-.169.045l-.253.191a.123.123 0 00-.022.163l.039.087-.177.132-.067-.127c-.067-.135-.073-.259.039-.346zM28.365 5.083c.171.108.351.202.537.281v-.228l-.757-.281s0 .093.219.242zM28.903 4.807v-.228l-.844-.307c.098.097.206.183.321.259.171.108.351.202.537.281zM28.903 4.29v-.231l-.94-.346s.183.149.402.298c.171.108.351.203.537.281z"/><path  d="M31.541 7.407h.962a.445.445 0 00-.469-.282.533.533 0 00-.492.281zM30.537 3.713l-.94.346v.228c.187-.079.366-.173.537-.281.219-.149.399-.298.399-.298zM30.354 4.841l-.757.281v.228c.186-.079.366-.173.537-.281.219-.149.219-.242.219-.242zM30.458 4.273l-.844.307v.228c.186-.079.366-.173.537-.281.115-.076.222-.162.321-.259zM26.467 7.125a.446.446 0 00-.469.282h.962a.547.547 0 00-.492-.281z"/><path d="M31.159 3.1c0-.54-.909-1.024-1.91-1.024s-1.91.484-1.91 1.024l.02.132.399 2.295-1.879 1.103a1.128 1.128 0 00-.498.777h.346a.768.768 0 01.798-.669c.436.023.695.281.954.67l.065.101.096.149h-2.785c.233.403.37.855.399 1.319v5.783c0 1.488 1.145 2.2 2.383 2.2.956 0 1.086-.042 1.615.484.526-.529.655-.484 1.615-.484 1.238 0 2.383-.709 2.383-2.2V8.971c.029-.465.166-.916.399-1.319h-2.785l.096-.149.067-.101c.256-.38.515-.647.954-.67.193-.008.382.057.529.183s.241.301.265.493h.343a1.125 1.125 0 00-.487-.776l-1.893-1.103.399-2.295.023-.132zm-3.432.264l1.406.481v2.211l-1.041-.549-.366-2.143zm.349 4.689c.208.27.509.453.844.515a.718.718 0 00.245.399.714.714 0 00.279.746.695.695 0 00.256.114.564.564 0 00.377.424l-.281.34a.436.436 0 01-.382.157l-1.319-.149c.056-.146-.096-.315-.512-.242l.518-1.451-.326-.658-.599.512-.045 1.522-.256-.127c-.335-.143-.433.461-.115.464h.127c-.007.028-.005.058.006.085s.029.05.053.067c-.015.009-.028.022-.036.038s-.013.033-.013.051.005.035.013.051a.11.11 0 00.036.038.124.124 0 00-.064.093.127.127 0 00.038.107.286.286 0 00-.025.246c.015.04.039.076.07.106s.068.052.109.064c.188.051.307-.155.346-.281l2.053.636a.694.694 0 00.74-.175l.534-.47a.56.56 0 00.281.675 2.957 2.957 0 00-.023.399H25.66V8.973a2.673 2.673 0 00-.2-.92l2.616-.003zm2.208 1.28a.694.694 0 00.031.689l-.087.087c-.385-.048-.537-.622-.537-.622a1.003 1.003 0 000 .155.538.538 0 01-.355-.563.887.887 0 00.281.098l.025-.169a.583.583 0 01-.487-.414h.107c.149-.001.298-.023.442-.065a.75.75 0 00.509.282.825.825 0 00.07.501v.02zm.563 1.5a.592.592 0 00-.09.177l-.214.197c.009-.159-.019-.318-.082-.464s-.158-.276-.278-.38l.228-.225.045.045a.52.52 0 00.061.403.527.527 0 00.33.239v.008zm-1.03-.079l.177-.174a.973.973 0 01.343.844l-.194.177a.659.659 0 01-.124.093 1.045 1.045 0 00-.202-.939zm-.38.146a.38.38 0 00.194-.028.954.954 0 01.078.903.902.902 0 01-.264-.039l-.067-.02c.117-.257.136-.548.053-.819l.006.003zm-.452-.059l.25.031c.046.262.004.532-.118.768l-.281-.084c.126-.216.181-.466.158-.714h-.008zm-.515-.059l.301.037c.023.238-.026.477-.141.686l-.307-.09a.985.985 0 00.146-.633zm-1.224-.082a.142.142 0 01-.142-.013c-.02-.015-.036-.035-.046-.058s-.013-.048-.009-.073a.47.47 0 01.478.017c.073.048.135.18.236.262-.019.131-.05.26-.093.385a.285.285 0 01-.263-.333.283.283 0 01.071-.141.186.186 0 00-.236-.05l.003.003zm-.2.56a.695.695 0 00.191.042.108.108 0 01-.084.096.098.098 0 01-.045.001c-.014-.004-.027-.011-.038-.021s-.02-.022-.025-.035c-.006-.013-.009-.028-.009-.042s.004-.029.01-.042zm-.281-.81c-.016-.008-.029-.022-.037-.038s-.009-.035-.004-.053a.08.08 0 01.08-.059c.084 0 .2.098.309.146a1.076 1.076 0 01-.349 0v.003zm.281.585c.062.059.245.037.245.037v.037c-.079.107-.301.059-.25-.073h.006zm.242-.121c-.129.051-.264-.02-.222-.104.062.056.231.028.231.028l-.008.076zm.192-1.519l-.25.911.084-1.471.388-.332.197.433-.481 1.423.132-.962c0-.068-.042-.073-.053 0l-.017-.003zm.033 1.106c.119-.008.239-.002.357.017.059.025.02.121-.056.11a1.588 1.588 0 01-.301-.127zm.436.222l.304.037c.022.21-.024.422-.129.605l-.281-.084c.069-.18.11-.37.121-.563l-.014.006zm4.912 4.039a1.668 1.668 0 01-.867 1.536l.194-.394H32l-.248.506c-.28.103-.576.155-.875.152-.987 0-1.249.039-1.615.405-.366-.363-.627-.405-1.615-.405-.3.003-.599-.05-.88-.155l.25-.506h-.183l-.219.444a2.73 2.73 0 01-.152-.079l.18-.363h-.186l-.132.281a1.683 1.683 0 01-.672-1.407v-2.233h7.193l.014 2.217zm.199-6.706c-.122.292-.19.604-.2.92v3.376h-.394a2.288 2.288 0 01-.329-.748.953.953 0 00.118.749h-.506a2.952 2.952 0 01-.233-.768c-.152.172-.056.639.039.768h-.335a1.693 1.693 0 01.048-.501c-.177-.034-.363-.124-.363-.321a.265.265 0 00.247.079l.143-.113c-.473.014-.495-.504-.121-.748-.377 0-.655-.211-.52-.61a.562.562 0 01-.163-.789.669.669 0 01-.076-.666.744.744 0 01-.52-.205h-.031c.224-.09.418-.24.563-.433l2.633.011zM31.629 6.43c-.391.067-.726.546-.999.976l-.031.051h-.281v.051c-.031.332-.346.782-1.041.782a1.147 1.147 0 01-.729-.233.862.862 0 01-.281-.399.68.68 0 01-.031-.149v-.051h-.281l-.07-.051c-.281-.43-.61-.906-.999-.976l1.06-.616 1.308.706 1.302-.709 1.072.619zm-1.216-.922l-1.041.549V3.843l1.407-.481-.366 2.146zm-1.158-1.907l-1.547-.61c.132-.309.737-.563 1.544-.563s1.407.264 1.541.563l-1.539.61z"/><path d="M32.683 10.234v-.169c-.52 0-.639-.624-.639-.624a.625.625 0 00.637.793zM32.028 11.271l-.051-.16c-.442.113-.672-.588-.672-.588a.605.605 0 00.412.744c.101.029.209.03.311.004zM32.349 10.622c-.529.084-.745-.532-.745-.532a.59.59 0 00.1.467.6.6 0 00.409.245.468.468 0 00.175.472.468.468 0 00.502.034l-.051-.152a.345.345 0 01-.4-.118.343.343 0 01.009-.417zM32.02 8.864v-.169c-.698-.143-.641-.624-.641-.624a.622.622 0 00.636.793zM27.592 15.902l-.25.509h.189l.25-.509h-.188zM27.969 15.902l-.248.509h.188l.248-.509h-.188zM29.482 15.902l-.25.509h.189l.25-.509h-.188zM29.862 15.902l-.25.509h.188l.248-.509h-.186zM29.105 15.902l-.25.509h.188l.25-.509h-.188zM31.313 16.411h.188l.25-.509h-.189l-.25.509zM28.348 15.902l-.25.509h.188l.25-.509h-.188zM28.725 15.902l-.25.509h.191l.248-.509h-.188zM27.87 13.176c-.015-.002-.031 0-.045.007s-.025.018-.033.031a.076.076 0 00.047.11.077.077 0 00.081-.029.074.074 0 00.014-.043c.001-.018-.005-.037-.017-.051s-.029-.023-.047-.025zM29.254 1.733a2.838 2.838 0 011.738.532c.079-.409.232-.801.45-1.156l-.624.07-.326-.695-.627.326-.61-.602-.608.605-.633-.329-.326.695-.624-.07c.219.355.371.747.45 1.156a2.848 2.848 0 011.741-.532zm-1.457-.281l.293-.627.563.281.602-.588.61.602.563-.281.281.63.366-.056a2.823 2.823 0 00-.231.546 3.264 3.264 0 00-3.184 0 2.876 2.876 0 00-.231-.546l.369.039z"/><path d="M29.89.489c.044.004.087-.01.121-.037s.055-.068.059-.112a1.041 1.041 0 00-.124-.332s-.2.214-.205.304a.167.167 0 00.15.177zM30.911.861a.165.165 0 00.222-.071c.026-.116.03-.236.014-.354 0 0-.264.118-.307.2-.02.039-.024.084-.01.126s.042.076.081.097zM28.613.489a.165.165 0 00.152-.177c0-.09-.205-.304-.205-.304-.06.103-.102.215-.124.332a.166.166 0 00.177.15zM27.589.861a.165.165 0 00.067-.222c-.042-.082-.307-.2-.307-.2-.015.118-.01.238.017.354a.165.165 0 00.096.082.17.17 0 00.126-.011zM39.862 6.484a.884.884 0 00.47-.478c-.563-.079-2.028-.698-3.24-.194.453-.43.861-.487.9-1.105a.44.44 0 00.683-.112c-.124-.368-.439-.07-.484-.172s.397.042.495-.436c-.357-.124-.464.169-.529.101s.228-.188.017-.563c-.371.217-.177.464-.256.489s-.02-.262-.43-.248c-.039.442.385.456.315.526s-.197-.253-.506-.082a.462.462 0 00.173.391.454.454 0 00.421.078c-.048.678-.669.563-1.125 1.316.982.503 1.423 1.381 2.028 1.986.214-.231.396-.491.54-.771a.791.791 0 00.868.173.791.791 0 00.258-.173c-.225-.231-.233-.405-.577-.72l-.02-.008zm-.931.132a1.112 1.112 0 01-.118 1.069 4.462 4.462 0 00-1.269-1.62c-.087-.056.048-.158.298-.191.754-.143 1.637.177 2.059.281a1.08 1.08 0 01-.563.236c.263.203.494.444.686.715-.295.073-.464-.115-1.103-.498zM32.613 17.916v-.83a7.575 7.575 0 01-2.515.627l-.048.295c.09 0 .203.023.352.034a8.65 8.65 0 01-2.329 0c.149 0 .262-.02.352-.034l-.048-.295a7.558 7.558 0 01-2.498-.627v.827l-.844.357c.716.361 1.471.638 2.25.827l-.101.346a7.691 7.691 0 004.186 0l-.101-.346a10.545 10.545 0 002.25-.827l-.906-.354zm-7.128.374l.585-.236v-.675a9.916 9.916 0 001.578.436l-.332 1.08a9.61 9.61 0 01-1.831-.613v.008zm3.769 1.246a7.912 7.912 0 01-1.857-.233l.352-1.125a9.07 9.07 0 003.013 0l.352 1.125a7.928 7.928 0 01-1.859.233zm1.933-.633l-.335-1.089a9.831 9.831 0 001.578-.442v.675l.585.236a9.54 9.54 0 01-1.831.613zM19.176 7.201c.145.279.327.537.54.768.605-.605 1.049-1.482 2.028-1.986-.464-.762-1.086-.636-1.125-1.316a.451.451 0 00.418-.08.458.458 0 00.172-.39c-.312-.172-.422.169-.506.082s.357-.084.315-.526c-.411 0-.335.281-.433.248s.115-.281-.256-.489c-.211.388.076.509.017.563s-.172-.225-.529-.101c.096.478.563.281.495.436s-.36-.197-.484.172a.44.44 0 00.512.212.443.443 0 00.172-.099c.039.622.447.672.9 1.105-1.212-.504-2.683.115-3.24.194a.884.884 0 00.473.475c-.36.332-.36.506-.579.737 0 0 .459.503 1.125 0l-.014-.003zm-.673-.093c.193-.271.425-.512.689-.715a1.108 1.108 0 01-.563-.239c.422-.113 1.308-.43 2.062-.281.248.034.388.135.298.191-.547.434-.986.99-1.28 1.623a1.134 1.134 0 01-.118-1.069c-.636.385-.805.563-1.103.498zM28.72 6.74v.366a.459.459 0 01.369-.121v.526a.779.779 0 01-.101.371h.526a.779.779 0 01-.101-.371v-.529a.458.458 0 01.369.121v-.366h-1.06v.003z"/></symbol><symbol id="icon-search" viewBox="0 0 32 32"><path d="M13.334 26.666c3.076 0 5.904-1.058 8.16-2.812l7.328 7.326 2.356-2.356-7.326-7.328a13.168 13.168 0 002.814-8.162C26.658 5.974 20.694.009 13.335 0h-.001C5.973.008.008 5.973 0 13.333v.001c.009 7.36 5.974 13.324 13.333 13.332h.001zm0-23.332c5.514 0 10 4.484 10 10 0 5.514-4.486 10-10 10-5.516 0-10-4.486-10-10 0-5.516 4.484-10 10-10z"/></symbol><symbol id="icon-Group-248" viewBox="0 0 262 32"><path fill="var(--color1, #f2353f)" d="M180.293 31.994a3.719 3.719 0 003.718-3.719V14.876l6.698 8.929a3.719 3.719 0 005.95-4.462L183.267 1.488a3.718 3.718 0 00-6.694 2.231v24.556a3.72 3.72 0 003.72 3.719zM7.438 28.275V3.72A3.719 3.719 0 100 3.72v24.555a3.719 3.719 0 107.438 0zM55.414 31.352a3.72 3.72 0 00.988-5.166l-5.588-8.23a3.718 3.718 0 10-6.154 4.178l5.588 8.23a3.714 3.714 0 005.166.988zM35.345 31.994a3.719 3.719 0 01-3.719-3.719V3.72a3.719 3.719 0 117.438 0v24.555a3.719 3.719 0 01-3.719 3.719zM82.954 28.242a3.719 3.719 0 00-3.719-3.719c-4.71 0-8.542-3.832-8.542-8.543s3.832-8.542 8.542-8.542a3.719 3.719 0 100-7.438c-8.812 0-15.98 7.168-15.98 15.98s7.169 15.981 15.98 15.981a3.719 3.719 0 003.719-3.719zM258.315 31.994a3.71 3.71 0 01-2.742-1.206L233.066 6.233a3.72 3.72 0 015.485-5.026l22.506 24.555a3.718 3.718 0 01-2.741 6.233zM159.26 28.242a3.719 3.719 0 00-3.719-3.719c-4.71 0-8.542-3.832-8.542-8.543s3.832-8.542 8.542-8.542a3.719 3.719 0 100-7.438c-8.811 0-15.98 7.168-15.98 15.98s7.169 15.981 15.98 15.981a3.719 3.719 0 003.719-3.719zM225.538 28.275V3.72a3.72 3.72 0 00-7.438 0v24.555a3.72 3.72 0 007.438 0zM103.997 31.994a3.719 3.719 0 003.719-3.719V14.876l6.697 8.929a3.72 3.72 0 005.951-4.462L106.972 1.488a3.719 3.719 0 00-6.694 2.231v24.556a3.719 3.719 0 003.719 3.719z"/><path fill="var(--color4, #5d626a)" d="M207.062 32a3.72 3.72 0 01-3.717-3.722l.013-13.399-6.706 8.923a3.718 3.718 0 11-5.945-4.468l13.408-17.842a3.718 3.718 0 016.691 2.237l-.022 24.556a3.72 3.72 0 01-3.722 3.716zM48.408 23.702a11.942 11.942 0 009.783-11.753c0-6.589-5.36-11.948-11.949-11.948H35.345a3.719 3.719 0 100 7.438h10.897a4.517 4.517 0 014.511 4.511 4.506 4.506 0 01-3.688 4.437 3.719 3.719 0 101.342 7.315zM238.55 30.788l22.506-24.555a3.72 3.72 0 00-5.483-5.026l-22.507 24.555a3.72 3.72 0 005.485 5.026zM171.523 15.981c0-8.811-7.17-15.98-15.981-15.98a3.719 3.719 0 100 7.438c4.71 0 8.542 3.832 8.542 8.542s-3.832 8.543-8.542 8.543a3.719 3.719 0 100 7.438c8.811 0 15.981-7.169 15.981-15.981zM95.215 15.981c0-8.811-7.169-15.98-15.98-15.98a3.719 3.719 0 100 7.438c4.71 0 8.543 3.832 8.543 8.542s-3.832 8.543-8.543 8.543a3.719 3.719 0 100 7.438c8.812 0 15.98-7.169 15.98-15.981zM26.565 11.949c0-6.589-5.36-11.948-11.949-11.948H3.72a3.719 3.719 0 100 7.438h10.896c2.488 0 4.511 2.024 4.511 4.511s-2.024 4.511-4.511 4.511H3.72a3.719 3.719 0 100 7.438h10.896c6.589 0 11.949-5.36 11.949-11.949zM130.765 32a3.72 3.72 0 01-3.716-3.722l.012-13.399-6.705 8.923a3.719 3.719 0 11-5.946-4.468l13.408-17.842a3.718 3.718 0 016.692 2.237l-.022 24.556a3.72 3.72 0 01-3.722 3.716z"/><path fill="var(--color5, #1f2c37)" d="M196.658 19.342h.002l-2.974-3.967-2.976 3.967h.003a3.692 3.692 0 00-.746 2.227 3.718 3.718 0 107.436 0c0-.836-.28-1.606-.746-2.227zM50.814 17.956c-1.398-2.135-4.648-2.139-6.074-.107-.892 1.185-.959 2.911-.156 4.158 1.983 3.191 6.366 1.273 8.705-.407l-2.475-3.645zM3.719 7.439h3.719V3.72a3.719 3.719 0 10-3.719 3.719zM3.719 23.899h3.719v-7.438H3.719a3.719 3.719 0 100 7.438zM247.061 21.502l5.045-5.504-5.045-5.504-5.045 5.504 5.045 5.504zM79.235 7.439a3.719 3.719 0 100-7.438 3.719 3.719 0 000 7.438zM79.235 31.961a3.719 3.719 0 100-7.438 3.719 3.719 0 000 7.438zM155.542 7.439a3.719 3.719 0 100-7.438 3.719 3.719 0 000 7.438zM155.542 31.961a3.719 3.719 0 100-7.438 3.719 3.719 0 000 7.438zM35.345 7.439h3.719V3.72a3.719 3.719 0 10-3.719 3.719zM120.361 19.342h.002l-2.975-3.967-2.973 3.967a3.699 3.699 0 00-.746 2.227 3.719 3.719 0 107.438 0c0-.836-.28-1.606-.746-2.227z"/></symbol><symbol id="icon-Group-284" viewBox="0 0 32 32"><path fill="none" stroke="#fff" style="stroke: var(--color1, #fff)" stroke-linejoin="miter" stroke-linecap="butt" stroke-miterlimit="4" stroke-width="0.4" d="M31.8 16c0 8.726-7.074 15.8-15.8 15.8s-15.8-7.074-15.8-15.8c0-8.726 7.074-15.8 15.8-15.8s15.8 7.074 15.8 15.8z"></path><path fill="#fff" style="fill: var(--color1, #fff)" d="M19.2 16l-4.8 2.771v-5.542l4.8 2.771z"></path></symbol></defs></svg>